<mxfile host="app.diagrams.net" agent="Mozilla/5.0 (Windows NT 10.0; Win64; x64) AppleWebKit/537.36 (KHTML, like Gecko) Chrome/132.0.0.0 Safari/537.36" version="26.0.6">
  <diagram name="Page-1" id="hYyU6hj6Iu4Gzb9gW-Ll">
    <mxGraphModel dx="1050" dy="562" grid="1" gridSize="10" guides="1" tooltips="1" connect="1" arrows="1" fold="1" page="1" pageScale="1" pageWidth="850" pageHeight="1100" math="0" shadow="0">
      <root>
        <mxCell id="0" />
        <mxCell id="1" parent="0" />
        <mxCell id="T-TmShhXrwo5NWU0pwaj-8" style="edgeStyle=orthogonalEdgeStyle;rounded=0;orthogonalLoop=1;jettySize=auto;html=1;entryX=0.5;entryY=0;entryDx=0;entryDy=0;" edge="1" parent="1" source="T-TmShhXrwo5NWU0pwaj-1" target="T-TmShhXrwo5NWU0pwaj-2">
          <mxGeometry relative="1" as="geometry">
            <Array as="points">
              <mxPoint x="275" y="240" />
            </Array>
          </mxGeometry>
        </mxCell>
        <mxCell id="T-TmShhXrwo5NWU0pwaj-9" style="edgeStyle=orthogonalEdgeStyle;rounded=0;orthogonalLoop=1;jettySize=auto;html=1;entryX=0.5;entryY=0;entryDx=0;entryDy=0;" edge="1" parent="1" source="T-TmShhXrwo5NWU0pwaj-1" target="T-TmShhXrwo5NWU0pwaj-3">
          <mxGeometry relative="1" as="geometry">
            <Array as="points">
              <mxPoint x="575" y="240" />
            </Array>
          </mxGeometry>
        </mxCell>
        <mxCell id="T-TmShhXrwo5NWU0pwaj-1" value="&lt;font style=&quot;font-size: 14px;&quot; face=&quot;Times New Roman&quot;&gt;&lt;b&gt;Review &amp;amp; Rating&lt;/b&gt;&lt;/font&gt;" style="ellipse;whiteSpace=wrap;html=1;" vertex="1" parent="1">
          <mxGeometry x="350" y="200" width="150" height="80" as="geometry" />
        </mxCell>
        <mxCell id="T-TmShhXrwo5NWU0pwaj-2" value="&lt;font face=&quot;Times New Roman&quot;&gt;&lt;span style=&quot;font-size: 14px;&quot;&gt;&lt;b&gt;Submit Review&lt;/b&gt;&lt;/span&gt;&lt;/font&gt;" style="ellipse;whiteSpace=wrap;html=1;" vertex="1" parent="1">
          <mxGeometry x="200" y="280" width="150" height="80" as="geometry" />
        </mxCell>
        <mxCell id="T-TmShhXrwo5NWU0pwaj-31" style="edgeStyle=orthogonalEdgeStyle;rounded=0;orthogonalLoop=1;jettySize=auto;html=1;exitX=0;exitY=0.5;exitDx=0;exitDy=0;entryX=0.75;entryY=0;entryDx=0;entryDy=0;" edge="1" parent="1" source="T-TmShhXrwo5NWU0pwaj-3" target="T-TmShhXrwo5NWU0pwaj-4">
          <mxGeometry relative="1" as="geometry">
            <mxPoint x="340" y="380" as="targetPoint" />
            <Array as="points">
              <mxPoint x="390" y="320" />
              <mxPoint x="390" y="360" />
              <mxPoint x="340" y="360" />
            </Array>
          </mxGeometry>
        </mxCell>
        <mxCell id="T-TmShhXrwo5NWU0pwaj-3" value="&lt;font face=&quot;Times New Roman&quot;&gt;&lt;span style=&quot;font-size: 14px;&quot;&gt;&lt;b&gt;View Reviews&lt;/b&gt;&lt;/span&gt;&lt;/font&gt;" style="ellipse;whiteSpace=wrap;html=1;" vertex="1" parent="1">
          <mxGeometry x="500" y="280" width="150" height="80" as="geometry" />
        </mxCell>
        <mxCell id="T-TmShhXrwo5NWU0pwaj-4" value="&lt;font face=&quot;Times New Roman&quot;&gt;&lt;span style=&quot;font-size: 14px;&quot;&gt;&lt;b&gt;Clients&lt;/b&gt;&lt;/span&gt;&lt;/font&gt;" style="rounded=0;whiteSpace=wrap;html=1;" vertex="1" parent="1">
          <mxGeometry x="250" y="400" width="120" height="40" as="geometry" />
        </mxCell>
        <mxCell id="T-TmShhXrwo5NWU0pwaj-5" value="" style="shape=partialRectangle;whiteSpace=wrap;html=1;top=0;bottom=0;fillColor=none;rotation=-90;" vertex="1" parent="1">
          <mxGeometry x="520" y="330" width="40" height="180" as="geometry" />
        </mxCell>
        <mxCell id="T-TmShhXrwo5NWU0pwaj-6" value="&lt;b style=&quot;forced-color-adjust: none; color: rgb(0, 0, 0); font-family: &amp;quot;Times New Roman&amp;quot;; font-size: 14px; font-style: normal; font-variant-ligatures: normal; font-variant-caps: normal; letter-spacing: normal; orphans: 2; text-align: center; text-indent: 0px; text-transform: none; widows: 2; word-spacing: 0px; -webkit-text-stroke-width: 0px; white-space: normal; background-color: rgb(251, 251, 251); text-decoration-thickness: initial; text-decoration-style: initial; text-decoration-color: initial;&quot;&gt;Review &amp;amp; Rating Database&lt;/b&gt;" style="text;whiteSpace=wrap;html=1;" vertex="1" parent="1">
          <mxGeometry x="460" y="410" width="180" height="40" as="geometry" />
        </mxCell>
        <mxCell id="T-TmShhXrwo5NWU0pwaj-22" style="edgeStyle=orthogonalEdgeStyle;rounded=0;orthogonalLoop=1;jettySize=auto;html=1;exitX=0.5;exitY=1;exitDx=0;exitDy=0;entryX=1.03;entryY=0.702;entryDx=0;entryDy=0;entryPerimeter=0;" edge="1" parent="1" source="T-TmShhXrwo5NWU0pwaj-3" target="T-TmShhXrwo5NWU0pwaj-5">
          <mxGeometry relative="1" as="geometry" />
        </mxCell>
        <mxCell id="T-TmShhXrwo5NWU0pwaj-23" style="edgeStyle=orthogonalEdgeStyle;rounded=0;orthogonalLoop=1;jettySize=auto;html=1;exitX=1;exitY=0.5;exitDx=0;exitDy=0;entryX=0.269;entryY=0.915;entryDx=0;entryDy=0;entryPerimeter=0;" edge="1" parent="1" source="T-TmShhXrwo5NWU0pwaj-5" target="T-TmShhXrwo5NWU0pwaj-3">
          <mxGeometry relative="1" as="geometry" />
        </mxCell>
        <mxCell id="T-TmShhXrwo5NWU0pwaj-24" style="edgeStyle=orthogonalEdgeStyle;rounded=0;orthogonalLoop=1;jettySize=auto;html=1;exitX=0.5;exitY=1;exitDx=0;exitDy=0;entryX=0.12;entryY=-0.07;entryDx=0;entryDy=0;entryPerimeter=0;" edge="1" parent="1" source="T-TmShhXrwo5NWU0pwaj-2" target="T-TmShhXrwo5NWU0pwaj-4">
          <mxGeometry relative="1" as="geometry" />
        </mxCell>
        <mxCell id="T-TmShhXrwo5NWU0pwaj-25" style="edgeStyle=orthogonalEdgeStyle;rounded=0;orthogonalLoop=1;jettySize=auto;html=1;exitX=0.5;exitY=0;exitDx=0;exitDy=0;entryX=0.733;entryY=0.945;entryDx=0;entryDy=0;entryPerimeter=0;" edge="1" parent="1" source="T-TmShhXrwo5NWU0pwaj-4" target="T-TmShhXrwo5NWU0pwaj-2">
          <mxGeometry relative="1" as="geometry" />
        </mxCell>
        <mxCell id="T-TmShhXrwo5NWU0pwaj-26" style="edgeStyle=orthogonalEdgeStyle;rounded=0;orthogonalLoop=1;jettySize=auto;html=1;exitX=0;exitY=0.5;exitDx=0;exitDy=0;entryX=0.01;entryY=0.129;entryDx=0;entryDy=0;entryPerimeter=0;" edge="1" parent="1" source="T-TmShhXrwo5NWU0pwaj-2" target="T-TmShhXrwo5NWU0pwaj-5">
          <mxGeometry relative="1" as="geometry" />
        </mxCell>
        <mxCell id="T-TmShhXrwo5NWU0pwaj-32" style="edgeStyle=orthogonalEdgeStyle;rounded=0;orthogonalLoop=1;jettySize=auto;html=1;entryX=0.024;entryY=0.735;entryDx=0;entryDy=0;entryPerimeter=0;" edge="1" parent="1" source="T-TmShhXrwo5NWU0pwaj-4" target="T-TmShhXrwo5NWU0pwaj-3">
          <mxGeometry relative="1" as="geometry">
            <Array as="points">
              <mxPoint x="420" y="420" />
              <mxPoint x="420" y="339" />
            </Array>
          </mxGeometry>
        </mxCell>
        <mxCell id="T-TmShhXrwo5NWU0pwaj-33" style="edgeStyle=orthogonalEdgeStyle;rounded=0;orthogonalLoop=1;jettySize=auto;html=1;exitX=0;exitY=0.5;exitDx=0;exitDy=0;entryX=0.104;entryY=0.155;entryDx=0;entryDy=0;entryPerimeter=0;" edge="1" parent="1" source="T-TmShhXrwo5NWU0pwaj-5" target="T-TmShhXrwo5NWU0pwaj-2">
          <mxGeometry relative="1" as="geometry">
            <Array as="points">
              <mxPoint x="540" y="460" />
              <mxPoint x="660" y="460" />
              <mxPoint x="660" y="190" />
              <mxPoint x="216" y="190" />
            </Array>
          </mxGeometry>
        </mxCell>
      </root>
    </mxGraphModel>
  </diagram>
</mxfile>
